<svg width="440" height="520" viewBox="0 0 440 520" fill="none" xmlns="http://www.w3.org/2000/svg">
<path d="M200 519.26H100C44.7715 519.26 0 474.488 0 419.26V419.26C0 364.032 44.7715 319.26 100 319.26V319.26C155.228 319.26 200 364.032 200 419.26V519.26Z" fill="#68B2A0"/>
<path d="M200 283.26H100C44.7715 283.26 0 238.488 0 183.26V183.26C0 128.032 44.7715 83.26 100 83.26V83.26C155.228 83.26 200 128.032 200 183.26V283.26Z" fill="#2C6975"/>
<path d="M240 236H340C395.228 236 440 280.772 440 336V336C440 391.228 395.228 436 340 436V436C284.772 436 240 391.228 240 336V236Z" fill="#2C6975"/>
<path d="M240 0H340C395.228 0 440 44.7715 440 100V100C440 155.228 395.228 200 340 200V200C284.772 200 240 155.228 240 100V0Z" fill="#68B2A0"/>
</svg>