<?xml version="1.0" standalone="no"?><svg xmlns:xlink="http://www.w3.org/1999/xlink" xmlns="http://www.w3.org/2000/svg" viewBox="0 0 768 1536" preserveAspectRatio="xMaxYMax slice"><g transform="scale(3.61241768579492)"><rect x="0" y="0" width="212.60000000000002" height="425.20000000000005" fill="#ffffff"/><rect x="0" y="0" width="35.43333333333334" height="35.43333333333334" fill="#ffffff"/><circle cx="8.86" cy="8.86" r="8.86" fill="#d9e7d6"/><path d="M 17.72 17.72 A 17.72 17.72 0 0 1  35.44 0 L 35.44 17.72L17.72 17.72" fill="#e9f2e8"/><path d="M 0 17.72 A 17.72 17.72 0 0 1 17.72 35.44 L 0 35.44L0 17.72" fill="#a2d0c5"/><rect x="70.86666666666667" y="0" width="35.43333333333334" height="35.43333333333334" fill="#ffffff"/><circle cx="79.73" cy="8.86" r="8.86" fill="#eef5ed"/><rect x="88.58" y="0" width="17.72" height="17.72" fill="#6db4a3"/><path d="M 70.87 35.44 A 17.72 17.72 0 0 1  88.59 17.72 L 88.59 35.44L70.87 35.44" fill="#c1e0d8"/><rect x="106.3" y="0" width="35.43" height="35.43" fill="#e5efe3"/><rect x="141.73333333333335" y="0" width="35.43333333333334" height="35.43333333333334" fill="#ffffff"/><circle cx="150.58999999999997" cy="8.86" r="8.86" fill="#afd6cd"/><path d="M 159.45 35.44 A 17.72 17.72 0 0 1  177.17 17.72 L 159.45 35.44 A 17.72 17.72 0 0 0 177.17 17.72" fill="#dfebdc"/><rect x="177.16666666666669" y="0" width="35.43333333333334" height="35.43333333333334" fill="#ffffff"/><circle cx="203.74" cy="8.86" r="8.86" fill="#d3e4d0"/><circle cx="186.02999999999997" cy="26.58" r="8.86" fill="#ecf3ea"/><path d="M 0 35.43 A 35.43 35.43 0 0 1  35.43 70.86 L 0 35.43 A 35.43 35.43 0 0 0 35.43 70.86" fill="#f8faf7"/><rect x="35.43333333333334" y="35.43333333333334" width="35.43333333333334" height="35.43333333333334" fill="#ffffff"/><polygon points="35.43,35.43 53.15,35.43 35.43,53.15" fill="#eff5ee"/><path d="M 53.15 53.15 A 17.72 17.72 0 0 0 70.87 70.87 L 70.87 53.15L53.15 53.15" fill="#91c7ba"/><rect x="70.86666666666667" y="35.43333333333334" width="35.43333333333334" height="35.43333333333334" fill="#ffffff"/><path d="M 70.87 35.43 A 17.72 17.72 0 0 1  88.59 53.15 L 70.87 35.43 A 17.72 17.72 0 0 0 88.59 53.15" fill="#fdfefd"/><rect x="88.58" y="35.43" width="17.72" height="17.72" fill="#c3e1d9"/><rect x="70.87" y="53.15" width="17.72" height="17.72" fill="#f3f8f2"/><path d="M 88.58 53.15 A 17.72 17.72 0 0 1  106.3 70.87 L 88.58 53.15 A 17.72 17.72 0 0 0 106.3 70.87" fill="#f7fafa"/><polygon points="106.3,35.43 141.73,35.43 141.73,70.86" fill="#f1f8f6"/><circle cx="159.445" cy="53.144999999999996" r="17.715" fill="#e2ede1"/><rect x="0" y="70.87" width="35.43" height="35.43" fill="#f0f6ef"/><circle cx="53.144999999999996" cy="88.58500000000001" r="17.715" fill="#fbfcfd"/><rect x="70.86666666666667" y="70.86666666666667" width="35.43333333333334" height="35.43333333333334" fill="#ffffff"/><path d="M 88.58 88.58 A 17.72 17.72 0 0 1  106.3 106.3 L 88.58 88.58 A 17.72 17.72 0 0 0 106.3 106.3" fill="#7abbab"/><path d="M 106.3 106.30000000000001 A 35.43 35.43 0 0 1  141.73 70.87 L 106.3 106.30000000000001 A 35.43 35.43 0 0 0 141.73 70.87" fill="#e7f0e5"/><rect x="177.16666666666669" y="70.86666666666667" width="35.43333333333334" height="35.43333333333334" fill="#ffffff"/><path d="M 177.17 88.59 A 17.72 17.72 0 0 1  194.89 70.87 L 177.17 88.59 A 17.72 17.72 0 0 0 194.89 70.87" fill="#fdfefd"/><path d="M 194.88 88.59 A 17.72 17.72 0 0 1  212.6 70.87 L 194.88 88.59 A 17.72 17.72 0 0 0 212.6 70.87" fill="#88abb1"/><path d="M 177.17 106.3 A 17.72 17.72 0 0 0 194.89 88.58 L 177.17 88.58L177.17 106.3" fill="#fcfdfc"/><path d="M 194.88 88.58 A 17.72 17.72 0 0 1  212.6 106.3 L 194.88 88.58 A 17.72 17.72 0 0 0 212.6 106.3" fill="#fcfdfc"/><circle cx="17.715" cy="124.015" r="17.715" fill="#f4f8f3"/><rect x="70.86666666666667" y="106.30000000000001" width="35.43333333333334" height="35.43333333333334" fill="#ffffff"/><rect x="70.87" y="106.3" width="17.72" height="17.72" fill="#e9f2e8"/><path d="M 70.87 141.74 A 17.72 17.72 0 0 0 88.59 124.02 L 70.87 124.02L70.87 141.74" fill="#cfe6e1"/><path d="M 88.58 141.74 A 17.72 17.72 0 0 1  106.3 124.02 L 88.58 141.74 A 17.72 17.72 0 0 0 106.3 124.02" fill="#94b3b9"/><rect x="106.3" y="106.3" width="35.43" height="35.43" fill="#cde0c9"/><rect x="141.73333333333335" y="106.30000000000001" width="35.43333333333334" height="35.43333333333334" fill="#ffffff"/><path d="M 141.73 106.3 A 17.72 17.72 0 0 0 159.45 124.02 L 159.45 106.3L141.73 106.3" fill="#cad9dc"/><circle cx="168.31" cy="115.16" r="8.86" fill="#f4f8f4"/><polygon points="141.73,124.02 159.45,124.02 141.73,141.74" fill="#b7dad2"/><rect x="177.16666666666669" y="106.30000000000001" width="35.43333333333334" height="35.43333333333334" fill="#ffffff"/><polygon points="177.17,106.3 194.89,106.3 177.17,124.02" fill="#729ba3"/><path d="M 177.17 141.74 A 17.72 17.72 0 0 1  194.89 124.02 L 177.17 141.74 A 17.72 17.72 0 0 0 194.89 124.02" fill="#a0bcc1"/><path d="M 194.88 141.74 A 17.72 17.72 0 0 0 212.6 124.02 L 194.88 124.02L194.88 141.74" fill="#789fa7"/><polygon points="0,141.73 35.43,141.73 35.43,177.16" fill="#c1dfd8"/><circle cx="88.58500000000001" cy="159.445" r="17.715" fill="#d9e7d6"/><rect x="106.30000000000001" y="141.73333333333335" width="35.43333333333334" height="35.43333333333334" fill="#ffffff"/><path d="M 124.02 141.73 A 17.72 17.72 0 0 1  141.74 159.45 L 124.02 141.73 A 17.72 17.72 0 0 0 141.74 159.45" fill="#9cb9be"/><path d="M 106.3 177.17 A 17.72 17.72 0 0 1  124.02 159.45 L 106.3 177.17 A 17.72 17.72 0 0 0 124.02 159.45" fill="#d7e3e5"/><circle cx="132.88" cy="168.31" r="8.86" fill="#fafcf9"/><polygon points="141.73,141.73 177.16,177.16 141.73,177.16" fill="#fafcfa"/><circle cx="194.885" cy="159.445" r="17.715" fill="#6a959e"/><rect x="35.43" y="177.17" width="35.43" height="35.43" fill="#f0f5f5"/><rect x="70.86666666666667" y="177.16666666666669" width="35.43333333333334" height="35.43333333333334" fill="#ffffff"/><circle cx="79.73" cy="186.02999999999997" r="8.86" fill="#e6efe4"/><polygon points="106.3,177.17 106.3,194.89 88.58,194.89" fill="#e1eddf"/><rect x="70.87" y="194.88" width="17.72" height="17.72" fill="#ecf4eb"/><rect x="88.58" y="194.88" width="17.72" height="17.72" fill="#d0e7e2"/><polygon points="141.73,177.17 177.16,177.17 177.16,212.6" fill="#316c78"/><circle cx="17.715" cy="230.315" r="17.715" fill="#eef5ed"/><rect x="70.86666666666667" y="212.60000000000002" width="35.43333333333334" height="35.43333333333334" fill="#ffffff"/><circle cx="97.44" cy="221.45999999999998" r="8.86" fill="#a9d3c9"/><path d="M 70.87 230.32 A 17.72 17.72 0 0 0 88.59 248.04 L 88.59 230.32L70.87 230.32" fill="#eaf2e9"/><path d="M 88.58 248.04 A 17.72 17.72 0 0 1  106.3 230.32 L 88.58 248.04 A 17.72 17.72 0 0 0 106.3 230.32" fill="#bcddd5"/><polygon points="141.73,212.6 141.73,248.03 106.3,248.03" fill="#e8f1e6"/><polygon points="141.73,212.6 177.16,248.03 141.73,248.03" fill="#91c7ba"/><rect x="35.43333333333334" y="248.03333333333336" width="35.43333333333334" height="35.43333333333334" fill="#ffffff"/><rect x="35.43" y="265.75" width="17.72" height="17.72" fill="#e4f1ee"/><path d="M 53.15 265.75 A 17.72 17.72 0 0 1  70.87 283.47 L 53.15 265.75 A 17.72 17.72 0 0 0 70.87 283.47" fill="#70b6a5"/><rect x="70.86666666666667" y="248.03333333333336" width="35.43333333333334" height="35.43333333333334" fill="#ffffff"/><polygon points="106.3,248.03 106.3,265.75 88.58,265.75" fill="#7cbcad"/><circle cx="97.44" cy="274.61" r="8.86" fill="#d0e2cc"/><rect x="106.30000000000001" y="248.03333333333336" width="35.43333333333334" height="35.43333333333334" fill="#ffffff"/><circle cx="115.16" cy="256.89" r="8.86" fill="#fbfdfd"/><rect x="141.73333333333335" y="248.03333333333336" width="35.43333333333334" height="35.43333333333334" fill="#ffffff"/><path d="M 141.73 248.03 A 17.72 17.72 0 0 1  159.45 265.75 L 141.73 248.03 A 17.72 17.72 0 0 0 159.45 265.75" fill="#d7e6d4"/><path d="M 159.45 265.75 A 17.72 17.72 0 0 1  177.17 248.03 L 159.45 265.75 A 17.72 17.72 0 0 0 177.17 248.03" fill="#f2f6f6"/><circle cx="150.58999999999997" cy="274.61" r="8.86" fill="#d5e5d1"/><circle cx="194.885" cy="265.745" r="17.715" fill="#ecf3ea"/><polygon points="0,283.47 35.43,283.47 0,318.90000000000003" fill="#9ccdc1"/><path d="M 35.43 318.90000000000003 A 35.43 35.43 0 0 1  70.86 283.47 L 70.86 318.90000000000003L35.43 318.90000000000003" fill="#acd5cb"/><circle cx="88.58500000000001" cy="301.185" r="17.715" fill="#deeeea"/><rect x="141.73" y="283.47" width="35.43" height="35.43" fill="#ffffff"/><rect x="177.16666666666669" y="283.4666666666667" width="35.43333333333334" height="35.43333333333334" fill="#ffffff"/><rect x="177.17" y="283.47" width="17.72" height="17.72" fill="#ecf3ea"/><path d="M 194.88 301.19000000000005 A 17.72 17.72 0 0 1  212.6 283.47 L 212.6 301.19000000000005L194.88 301.19000000000005" fill="#bfd1d5"/><path d="M 177.17 318.9 A 17.72 17.72 0 0 1  194.89 301.18 L 177.17 318.9 A 17.72 17.72 0 0 0 194.89 301.18" fill="#fafcfa"/><path d="M 194.88 318.9 A 17.72 17.72 0 0 0 212.6 301.18 L 194.88 301.18L194.88 318.9" fill="#c9e4dd"/><rect x="106.30000000000001" y="318.90000000000003" width="35.43333333333334" height="35.43333333333334" fill="#ffffff"/><rect x="124.02" y="318.9" width="17.72" height="17.72" fill="#f8fbf8"/><rect x="106.3" y="336.62" width="17.72" height="17.72" fill="#eff5ee"/><rect x="141.73333333333335" y="318.90000000000003" width="35.43333333333334" height="35.43333333333334" fill="#ffffff"/><path d="M 159.45 336.62 A 17.72 17.72 0 0 1  177.17 354.34000000000003 L 159.45 336.62 A 17.72 17.72 0 0 0 177.17 354.34000000000003" fill="#b1c8cc"/><rect x="0" y="354.33333333333337" width="35.43333333333334" height="35.43333333333334" fill="#ffffff"/><circle cx="26.58" cy="363.19" r="8.86" fill="#e2eaec"/><polygon points="35.44,372.05 35.44,389.77 17.72,389.77" fill="#a6c0c5"/><rect x="35.43333333333334" y="354.33333333333337" width="35.43333333333334" height="35.43333333333334" fill="#ffffff"/><polygon points="35.43,354.33 53.15,354.33 35.43,372.04999999999995" fill="#e9f1e7"/><path d="M 35.43 389.77 A 17.72 17.72 0 0 0 53.15 372.05 L 35.43 372.05L35.43 389.77" fill="#fdfefd"/><circle cx="62.01" cy="380.91" r="8.86" fill="#4c808a"/><rect x="70.86666666666667" y="354.33333333333337" width="35.43333333333334" height="35.43333333333334" fill="#ffffff"/><circle cx="79.73" cy="363.19" r="8.86" fill="#fcfdfc"/><path d="M 88.58 354.33 A 17.72 17.72 0 0 1  106.3 372.04999999999995 L 88.58 354.33 A 17.72 17.72 0 0 0 106.3 372.04999999999995" fill="#6f99a1"/><rect x="70.87" y="372.05" width="17.72" height="17.72" fill="#6bb4a2"/><path d="M 88.58 389.77 A 17.72 17.72 0 0 1  106.3 372.05 L 88.58 389.77 A 17.72 17.72 0 0 0 106.3 372.05" fill="#f8fbf8"/><rect x="141.73333333333335" y="354.33333333333337" width="35.43333333333334" height="35.43333333333334" fill="#ffffff"/><polygon points="159.45,372.05 177.17,372.05 159.45,389.77" fill="#7ca2a9"/><rect x="70.86666666666667" y="389.7666666666667" width="35.43333333333334" height="35.43333333333334" fill="#ffffff"/><circle cx="79.73" cy="398.63" r="8.86" fill="#d8e7d5"/><circle cx="97.44" cy="398.63" r="8.86" fill="#e8f1e7"/><rect x="70.87" y="407.48" width="17.72" height="17.72" fill="#cee1ca"/><path d="M 88.58 425.20000000000005 A 17.72 17.72 0 0 1  106.3 407.48 L 106.3 425.20000000000005L88.58 425.20000000000005" fill="#9ecdc2"/><rect x="106.30000000000001" y="389.7666666666667" width="35.43333333333334" height="35.43333333333334" fill="#ffffff"/><circle cx="132.88" cy="398.63" r="8.86" fill="#bdd0d4"/><rect x="106.3" y="407.48" width="17.72" height="17.72" fill="#fefefe"/><rect x="141.73333333333335" y="389.7666666666667" width="35.43333333333334" height="35.43333333333334" fill="#ffffff"/><path d="M 141.73 407.49 A 17.72 17.72 0 0 1  159.45 389.77 L 141.73 407.49 A 17.72 17.72 0 0 0 159.45 389.77" fill="#eff5ee"/><polygon points="159.45,389.77 177.17,389.77 177.17,407.49" fill="#a6d2c7"/><polygon points="141.73,407.48 159.45,407.48 159.45,425.20000000000005" fill="#c8e3dc"/><rect x="159.45" y="407.48" width="17.72" height="17.72" fill="#f1f5f6"/></g></svg>