<svg id="visual" viewBox="0 0 900 600" width="900" height="600" xmlns="http://www.w3.org/2000/svg" xmlns:xlink="http://www.w3.org/1999/xlink" version="1.1"><path d="M0 371L21.5 372.3C43 373.7 86 376.3 128.8 383.7C171.7 391 214.3 403 257.2 413.7C300 424.3 343 433.7 385.8 437.3C428.7 441 471.3 439 514.2 428C557 417 600 397 642.8 392.7C685.7 388.3 728.3 399.7 771.2 397C814 394.3 857 377.7 878.5 369.3L900 361L900 601L878.5 601C857 601 814 601 771.2 601C728.3 601 685.7 601 642.8 601C600 601 557 601 514.2 601C471.3 601 428.7 601 385.8 601C343 601 300 601 257.2 601C214.3 601 171.7 601 128.8 601C86 601 43 601 21.5 601L0 601Z" fill="#2c6975"></path><path d="M0 444L21.5 442.2C43 440.3 86 436.7 128.8 441.8C171.7 447 214.3 461 257.2 458.7C300 456.3 343 437.7 385.8 426.7C428.7 415.7 471.3 412.3 514.2 422.2C557 432 600 455 642.8 456.5C685.7 458 728.3 438 771.2 437.2C814 436.3 857 454.7 878.5 463.8L900 473L900 601L878.5 601C857 601 814 601 771.2 601C728.3 601 685.7 601 642.8 601C600 601 557 601 514.2 601C471.3 601 428.7 601 385.8 601C343 601 300 601 257.2 601C214.3 601 171.7 601 128.8 601C86 601 43 601 21.5 601L0 601Z" fill="#21525c"></path><path d="M0 450L21.5 455C43 460 86 470 128.8 469.2C171.7 468.3 214.3 456.7 257.2 455C300 453.3 343 461.7 385.8 460.8C428.7 460 471.3 450 514.2 452.3C557 454.7 600 469.3 642.8 469.3C685.7 469.3 728.3 454.7 771.2 458.2C814 461.7 857 483.3 878.5 494.2L900 505L900 601L878.5 601C857 601 814 601 771.2 601C728.3 601 685.7 601 642.8 601C600 601 557 601 514.2 601C471.3 601 428.7 601 385.8 601C343 601 300 601 257.2 601C214.3 601 171.7 601 128.8 601C86 601 43 601 21.5 601L0 601Z" fill="#173c44"></path><path d="M0 537L21.5 534.2C43 531.3 86 525.7 128.8 524.7C171.7 523.7 214.3 527.3 257.2 521.5C300 515.7 343 500.3 385.8 501.7C428.7 503 471.3 521 514.2 523.5C557 526 600 513 642.8 507.8C685.7 502.7 728.3 505.3 771.2 505C814 504.7 857 501.3 878.5 499.7L900 498L900 601L878.5 601C857 601 814 601 771.2 601C728.3 601 685.7 601 642.8 601C600 601 557 601 514.2 601C471.3 601 428.7 601 385.8 601C343 601 300 601 257.2 601C214.3 601 171.7 601 128.8 601C86 601 43 601 21.5 601L0 601Z" fill="#0e272d"></path><path d="M0 529L21.5 533.3C43 537.7 86 546.3 128.8 546.2C171.7 546 214.3 537 257.2 538.7C300 540.3 343 552.7 385.8 557.5C428.7 562.3 471.3 559.7 514.2 559.5C557 559.3 600 561.7 642.8 561C685.7 560.3 728.3 556.7 771.2 558.2C814 559.7 857 566.3 878.5 569.7L900 573L900 601L878.5 601C857 601 814 601 771.2 601C728.3 601 685.7 601 642.8 601C600 601 557 601 514.2 601C471.3 601 428.7 601 385.8 601C343 601 300 601 257.2 601C214.3 601 171.7 601 128.8 601C86 601 43 601 21.5 601L0 601Z" fill="#001418"></path></svg>